<?xml version="1.0" standalone="no"?>
<!DOCTYPE svg PUBLIC "-//W3C//DTD SVG 20010904//EN"
 "http://www.w3.org/TR/2001/REC-SVG-20010904/DTD/svg10.dtd">
<svg version="1.0" xmlns="http://www.w3.org/2000/svg"
 width="1101.000000pt" height="777.000000pt" viewBox="0 0 1101.000000 777.000000"
 preserveAspectRatio="xMidYMid meet">

<g transform="translate(0.000000,777.000000) scale(0.100000,-0.100000)"
fill="#E94560" stroke="none">
<path d="M8762 7380 c-30 -11 -83 -33 -118 -50 -35 -16 -68 -30 -73 -30 -7 0
-131 -52 -278 -116 -17 -8 -34 -14 -37 -14 -3 0 -25 -9 -49 -20 -23 -10 -89
-39 -147 -63 -398 -166 -605 -253 -818 -343 -133 -57 -245 -104 -247 -104 -3
0 -39 -16 -81 -35 -41 -19 -77 -35 -79 -35 -2 0 -50 -20 -107 -44 -189 -80
-362 -154 -483 -206 -66 -28 -172 -73 -235 -100 -387 -163 -664 -280 -795
-337 -82 -36 -166 -71 -185 -78 -19 -7 -66 -27 -105 -44 -38 -18 -90 -41 -115
-51 -97 -42 -331 -140 -450 -190 -69 -29 -170 -72 -225 -95 -422 -180 -798
-336 -993 -412 -73 -28 -96 -42 -108 -64 -25 -49 -18 -68 53 -138 63 -63 76
-71 183 -111 63 -23 160 -60 215 -82 55 -22 123 -48 150 -58 74 -26 303 -109
525 -190 181 -66 279 -102 750 -269 96 -35 240 -87 320 -116 80 -29 156 -56
170 -60 14 -4 72 -24 130 -45 58 -21 182 -66 275 -99 94 -33 258 -91 365 -130
394 -140 857 -297 896 -304 31 -6 31 -6 84 106 30 62 104 218 165 347 62 129
131 276 155 325 92 194 163 342 304 629 80 164 146 299 146 301 0 2 59 124
131 272 72 147 155 318 184 378 29 61 120 250 202 420 83 171 197 407 253 525
57 118 149 307 205 420 56 113 105 215 109 228 12 36 -2 59 -49 81 -55 26
-122 26 -193 1z"/>
<path d="M9304 6943 c-9 -16 -37 -66 -64 -113 -27 -47 -120 -227 -205 -400
-86 -173 -165 -332 -175 -352 -44 -84 -63 -122 -171 -343 -62 -126 -173 -354
-247 -505 -302 -617 -499 -1026 -654 -1355 -44 -93 -103 -217 -130 -275 -123
-258 -231 -501 -259 -580 -17 -47 -39 -95 -51 -107 -43 -46 -59 -43 -388 73
-194 69 -479 167 -520 180 -25 7 -130 43 -235 80 -104 36 -260 90 -345 119
-85 29 -207 72 -270 95 -167 60 -305 108 -385 135 -38 12 -135 46 -215 75 -80
28 -156 56 -170 60 -14 5 -104 36 -200 70 -173 61 -507 178 -585 205 -22 7
-125 43 -230 80 -285 100 -533 181 -598 195 -50 12 -60 11 -73 -1 -13 -13 -6
-34 57 -169 39 -85 85 -191 104 -235 18 -44 44 -105 58 -135 37 -82 203 -468
257 -600 26 -63 75 -180 109 -260 34 -80 98 -232 142 -339 44 -106 84 -201 89
-210 5 -9 25 -56 46 -106 33 -82 49 -120 118 -285 13 -30 39 -93 59 -140 19
-47 54 -130 76 -185 23 -55 46 -109 51 -120 5 -11 21 -51 36 -90 15 -38 54
-126 87 -195 48 -99 72 -137 117 -181 119 -120 289 -166 425 -116 33 12 474
206 540 237 43 20 373 163 415 180 25 10 160 68 300 130 140 62 314 137 385
167 140 59 158 67 330 144 11 5 92 40 180 78 88 38 302 131 475 206 173 75
425 184 560 241 135 57 261 111 280 120 72 33 568 248 648 281 46 18 91 38
100 43 9 5 78 35 152 66 74 31 164 69 200 85 86 38 283 122 395 169 218 92
613 263 680 296 125 61 195 172 195 308 -1 65 2 57 -145 396 -37 85 -71 160
-75 165 -4 6 -28 57 -53 115 -24 58 -91 213 -149 345 -129 294 -222 509 -258
595 -15 36 -37 85 -48 110 -11 25 -33 74 -47 110 -15 36 -40 93 -56 128 -16
35 -29 65 -29 67 0 2 -28 66 -61 142 -34 76 -81 183 -104 238 -38 90 -236 549
-336 781 -29 66 -47 94 -65 103 -38 17 -54 14 -70 -16z"/>
<path d="M2512 4171 c-34 -17 -118 -54 -185 -82 -67 -28 -183 -77 -257 -109
-74 -31 -238 -101 -365 -154 -126 -53 -255 -108 -285 -121 -53 -23 -237 -101
-425 -180 -49 -21 -108 -46 -130 -56 -153 -68 -498 -209 -513 -209 -5 0 -26
-18 -45 -39 -63 -70 -61 -185 5 -260 36 -41 73 -53 138 -45 68 8 98 19 310
109 107 45 267 113 355 150 88 38 201 85 250 105 50 20 216 91 370 157 154 66
352 151 440 188 88 37 174 73 190 80 77 35 226 99 285 123 77 32 135 88 151
145 13 49 6 89 -24 141 -34 59 -67 80 -140 84 -53 3 -71 -1 -125 -27z"/>
<path d="M3095 2631 c-115 -48 -264 -111 -330 -140 -66 -29 -140 -61 -165 -71
-25 -11 -115 -49 -200 -86 -85 -36 -195 -83 -245 -104 -49 -21 -160 -69 -245
-105 -85 -37 -181 -77 -214 -90 -150 -57 -199 -161 -130 -281 26 -46 51 -65
107 -83 33 -11 47 -10 106 8 38 12 109 39 157 62 49 22 143 63 209 90 66 27
138 58 160 69 22 10 90 39 150 65 61 25 119 50 130 55 33 14 219 94 410 175
99 43 194 83 210 91 17 7 66 27 110 44 125 49 162 74 190 130 14 27 25 65 25
83 0 69 -50 143 -113 166 -62 24 -106 13 -322 -78z"/>
<path d="M3890 1213 c-90 -37 -583 -249 -640 -275 -90 -42 -163 -74 -290 -127
-52 -22 -122 -53 -155 -69 -33 -16 -78 -35 -100 -42 -76 -24 -110 -47 -135
-91 -30 -53 -32 -128 -7 -182 21 -43 79 -85 128 -93 43 -7 148 19 219 55 31
16 96 45 145 66 90 38 328 141 633 274 90 39 166 71 169 71 3 0 51 23 106 50
124 62 149 90 155 171 5 70 -19 120 -80 163 -40 29 -114 43 -148 29z"/>
</g>
</svg>
