<?xml version="1.0" standalone="no"?>
<!DOCTYPE svg PUBLIC "-//W3C//DTD SVG 20010904//EN"
 "http://www.w3.org/TR/2001/REC-SVG-20010904/DTD/svg10.dtd">
<svg version="1.0" xmlns="http://www.w3.org/2000/svg"
 width="922.000000pt" height="774.000000pt" viewBox="0 0 922.000000 774.000000"
 preserveAspectRatio="xMidYMid meet">

<g transform="translate(0.000000,774.000000) scale(0.100000,-0.100000)"
fill="#E94560" stroke="#E94560">
<path d="M1662 5266 c-45 -43 -46 -45 -32 -72 8 -15 35 -43 60 -63 25 -20 70
-61 100 -91 30 -30 75 -68 100 -85 24 -16 62 -49 85 -73 22 -24 60 -56 85 -71
25 -15 74 -56 109 -89 36 -34 70 -62 76 -62 6 0 24 -12 41 -27 52 -49 112 -93
123 -93 6 0 29 -16 51 -37 50 -44 149 -114 211 -147 25 -13 52 -32 59 -41 19
-23 108 -79 146 -92 26 -9 139 -1 151 11 4 4 -135 127 -167 148 -14 8 -60 48
-103 87 -42 39 -82 71 -87 71 -6 0 -37 27 -70 60 -33 33 -66 60 -73 60 -7 0
-39 27 -72 61 -33 33 -76 69 -95 79 -19 10 -46 30 -60 45 -14 15 -70 64 -125
108 -186 150 -237 192 -333 275 -52 45 -104 82 -114 82 -11 0 -40 -20 -66 -44z"/>
<path d="M6755 5133 c-71 -15 -157 -68 -237 -144 -31 -30 -67 -63 -81 -74 -13
-12 -26 -25 -28 -30 -2 -6 -24 -27 -49 -48 -73 -62 -186 -166 -280 -257 -48
-47 -101 -95 -118 -108 l-30 -22 -119 26 c-109 24 -190 45 -303 79 -25 7 -61
16 -80 20 -19 4 -62 15 -95 25 -106 33 -288 79 -340 86 -68 10 -424 10 -510 0
-65 -7 -185 -44 -280 -85 -22 -10 -83 -35 -136 -55 -147 -56 -142 -48 -92
-153 23 -48 49 -110 58 -138 9 -27 35 -86 59 -130 35 -67 45 -80 64 -78 22 3
55 17 197 83 33 15 103 37 156 49 90 21 97 22 136 6 25 -10 51 -31 66 -53 35
-52 73 -89 107 -107 16 -8 32 -26 36 -40 6 -24 58 -55 116 -69 52 -12 216 -16
264 -5 27 6 74 13 104 15 l55 5 67 -64 c37 -36 73 -67 80 -69 7 -3 32 9 55 26
138 102 175 131 184 148 5 10 28 27 50 38 22 12 71 50 109 85 39 35 80 67 93
71 12 3 45 30 73 58 27 28 70 64 95 81 24 16 53 39 65 50 41 39 90 82 159 137
39 31 100 85 137 120 l66 65 -10 39 c-17 61 -4 104 46 153 79 78 171 77 244
-3 42 -45 59 -96 48 -139 -15 -61 -102 -144 -167 -160 -14 -4 -32 -18 -39 -33
-14 -25 -13 -27 28 -61 24 -20 62 -53 85 -75 23 -22 52 -44 63 -48 12 -5 38
-37 57 -72 25 -43 49 -71 78 -88 22 -14 50 -38 62 -55 11 -16 30 -38 41 -47
20 -16 22 -16 40 0 10 9 22 27 27 39 13 35 66 56 139 57 79 1 123 -21 151 -76
37 -73 20 -159 -45 -216 -32 -28 -44 -32 -92 -32 -30 0 -64 5 -74 10 -16 8
-25 2 -59 -37 -22 -27 -68 -81 -103 -121 -35 -40 -79 -94 -98 -120 -19 -26
-43 -53 -53 -60 -10 -8 -43 -49 -73 -93 -31 -43 -61 -82 -68 -86 -7 -5 -43
-46 -81 -93 -77 -97 -138 -170 -177 -214 -16 -17 -28 -34 -28 -38 0 -14 -142
-173 -167 -186 -31 -17 -112 -26 -157 -18 -37 7 -111 63 -229 176 -38 36 -73
67 -78 68 -5 2 -34 -12 -63 -32 -30 -20 -60 -38 -68 -41 -17 -7 -78 51 -78 75
0 10 20 36 45 58 25 22 45 44 45 48 0 5 -20 32 -45 61 -32 36 -70 64 -133 97
-49 25 -94 51 -100 59 -6 7 -18 38 -26 69 -8 30 -23 73 -34 94 -11 22 -23 50
-27 63 -4 13 -21 36 -39 50 -17 14 -51 45 -77 68 l-45 42 -140 -5 c-162 -7
-231 6 -308 55 -28 17 -54 31 -58 31 -4 0 -8 -25 -8 -55 0 -53 1 -55 23 -50
19 5 28 -1 50 -34 27 -40 134 -132 215 -184 25 -15 67 -50 96 -76 28 -27 71
-61 96 -76 24 -15 65 -49 91 -76 25 -26 69 -62 98 -79 28 -17 51 -35 51 -40 0
-4 27 -30 61 -57 34 -26 95 -76 136 -111 41 -34 107 -88 146 -119 40 -31 98
-80 129 -110 31 -29 61 -53 66 -53 6 0 38 -28 73 -62 34 -35 72 -68 83 -73 15
-8 49 -7 114 1 l94 12 76 74 c42 40 106 102 143 138 37 36 108 103 158 150 51
47 111 105 134 129 23 24 67 64 97 88 30 25 100 89 155 142 55 53 140 130 189
171 81 68 160 138 256 227 83 76 117 151 150 333 13 70 11 164 -4 238 -8 37
-17 83 -21 102 -9 58 -88 232 -141 310 -62 93 -207 242 -265 271 -24 13 -60
35 -79 50 -42 33 -164 86 -240 105 -51 12 -210 17 -255 7z"/>
<path d="M1418 5000 c-43 -49 -78 -95 -78 -102 -1 -7 -14 -31 -30 -53 -42 -57
-123 -213 -135 -260 -6 -22 -16 -51 -22 -65 -22 -48 -90 -337 -108 -456 l-6
-41 48 -22 c26 -13 65 -36 86 -52 20 -17 62 -41 91 -54 29 -13 65 -34 80 -47
14 -13 62 -45 106 -73 44 -27 123 -78 174 -112 52 -34 113 -71 135 -82 22 -12
82 -51 133 -88 51 -37 113 -78 138 -91 25 -12 70 -41 100 -63 30 -22 78 -51
105 -65 28 -15 78 -46 113 -70 35 -24 65 -44 67 -44 3 0 5 11 5 24 0 42 59
181 101 237 22 30 63 95 91 144 28 50 70 124 94 166 l44 76 0 146 0 145 -42
37 c-24 20 -81 61 -128 92 -47 31 -104 74 -128 95 -24 22 -58 46 -76 53 -18 8
-55 34 -82 58 -27 24 -69 57 -94 74 -25 17 -63 47 -85 67 -22 20 -63 52 -92
71 -28 19 -53 39 -55 44 -1 5 -34 34 -73 66 -73 59 -82 67 -261 233 -61 56
-117 102 -125 101 -8 0 -49 -40 -91 -89z"/>
<path d="M3680 4381 c-41 -14 -101 -41 -132 -58 -32 -18 -60 -33 -63 -33 -3 0
-43 -18 -90 -40 -47 -22 -90 -40 -96 -40 -6 0 -79 -33 -163 -73 -83 -41 -168
-79 -188 -86 l-38 -13 0 -81 c0 -132 30 -202 104 -243 70 -39 134 -46 236 -24
49 10 113 30 142 44 29 13 64 27 78 31 14 4 45 18 70 31 25 13 88 39 140 58
52 19 124 48 160 64 36 16 83 35 105 42 58 18 61 25 34 67 -36 54 -98 188
-119 256 -24 75 -59 127 -85 126 -11 -1 -54 -13 -95 -28z"/>
<path d="M6555 4349 c-101 -97 -194 -179 -202 -179 -6 0 -16 -6 -22 -14 -10
-11 -3 -25 35 -68 104 -119 134 -150 144 -146 15 5 250 241 250 251 0 16 -28
62 -52 84 -21 19 -128 94 -132 92 0 -1 -10 -10 -21 -20z"/>
<path d="M4480 4010 c-60 -16 -242 -91 -265 -109 -5 -5 -48 -20 -95 -35 -46
-15 -89 -31 -95 -36 -5 -4 -45 -22 -87 -39 -43 -17 -86 -35 -95 -40 -10 -5
-52 -22 -93 -37 -41 -14 -118 -44 -170 -66 -52 -22 -111 -47 -130 -55 -19 -8
-44 -19 -55 -24 -46 -21 -184 -50 -240 -50 -77 0 -196 41 -252 87 -23 19 -45
34 -50 34 -7 0 -24 -23 -94 -134 -14 -23 -44 -66 -67 -96 -23 -30 -42 -59 -42
-63 0 -5 -16 -40 -35 -78 -54 -107 -69 -179 -55 -258 6 -36 23 -95 36 -131 14
-36 30 -76 35 -90 12 -33 179 -204 218 -225 17 -8 53 -34 80 -58 28 -23 60
-50 73 -59 13 -10 50 -38 82 -63 58 -44 89 -55 101 -36 6 10 92 71 100 71 5 0
97 57 145 89 59 39 127 54 226 48 l94 -5 70 49 c39 27 81 67 95 89 14 21 33
43 43 49 10 5 38 35 62 67 25 31 71 85 103 118 33 34 66 72 75 86 29 43 134
175 143 178 5 2 23 29 40 60 18 31 50 78 71 104 45 54 104 166 135 253 13 37
25 106 31 182 5 68 15 129 22 138 9 11 9 22 0 50 -19 59 -48 65 -160 35z"/>
<path d="M6859 4003 c-19 -14 -54 -51 -79 -81 -47 -57 -55 -64 -108 -107 -57
-47 -57 -56 4 -105 31 -25 62 -57 70 -72 8 -16 20 -28 27 -28 12 0 88 79 191
200 31 36 65 74 76 86 36 37 23 63 -52 107 -59 34 -86 34 -129 0z"/>
<path d="M6091 3966 c-18 -19 -58 -51 -88 -72 -63 -44 -136 -105 -205 -170
-26 -24 -54 -44 -61 -44 -8 0 -22 -9 -32 -20 -29 -32 -14 -83 42 -145 26 -29
64 -71 84 -94 45 -52 69 -52 118 -3 21 20 91 87 156 147 162 151 225 214 225
223 0 5 -21 31 -47 58 -27 27 -68 73 -92 102 -24 29 -49 52 -55 52 -7 0 -27
-15 -45 -34z"/>
<path d="M6428 3594 c-22 -27 -65 -68 -98 -93 -18 -14 -45 -42 -61 -64 -16
-22 -61 -67 -99 -99 l-70 -59 0 -52 c0 -79 6 -89 83 -142 118 -82 117 -82 176
-24 28 27 51 54 51 59 0 6 30 42 66 82 37 40 78 90 91 113 14 22 38 50 54 63
16 13 29 29 29 35 -1 20 -179 197 -198 197 -6 0 -17 -7 -24 -16z"/>
<path d="M4722 3515 c-12 -25 -22 -53 -22 -61 0 -9 -25 -51 -55 -94 -30 -43
-55 -83 -55 -90 0 -13 50 -59 65 -60 6 0 28 -18 49 -40 21 -22 66 -61 100 -87
33 -25 66 -51 71 -57 23 -25 155 -135 228 -190 42 -32 77 -62 77 -67 0 -4 25
-25 56 -45 31 -21 81 -62 112 -91 31 -30 69 -61 86 -70 17 -9 57 -42 88 -74
32 -32 76 -68 98 -79 22 -11 40 -24 40 -29 0 -8 33 -37 215 -183 128 -104 182
-138 213 -138 40 0 139 82 163 133 10 23 19 54 19 69 0 44 -28 103 -58 120
-28 17 -94 69 -257 204 -49 41 -115 94 -145 119 -30 24 -81 68 -113 97 -32 29
-80 67 -105 85 -26 17 -74 56 -107 87 -32 31 -74 63 -91 71 -18 8 -41 26 -51
39 -16 21 -261 222 -346 284 -18 13 -68 55 -111 93 -44 38 -85 69 -91 69 -7 0
-18 7 -25 15 -19 22 -24 19 -48 -30z"/>
<path d="M4453 3072 c-28 -31 -69 -79 -90 -107 -22 -27 -47 -56 -56 -63 -14
-12 -9 -21 51 -79 37 -36 86 -78 110 -93 23 -15 68 -53 100 -85 31 -31 68 -63
82 -70 14 -8 56 -43 95 -79 38 -36 73 -66 77 -66 5 0 34 -24 66 -52 73 -66
148 -128 182 -150 14 -9 45 -35 69 -58 25 -22 50 -44 56 -48 22 -13 99 -77
129 -108 17 -17 51 -45 76 -62 25 -16 71 -55 103 -86 32 -31 65 -56 73 -56 8
0 47 -30 87 -68 40 -37 95 -82 124 -100 l52 -34 63 34 c59 31 63 36 90 102 15
38 28 77 28 88 0 31 -48 93 -92 118 -23 14 -71 53 -107 86 -36 34 -80 69 -98
78 -17 8 -44 31 -60 50 -15 19 -52 50 -81 70 -29 19 -83 65 -120 101 -37 36
-71 65 -77 65 -5 0 -29 17 -52 38 -23 20 -70 60 -105 89 -35 29 -96 81 -136
115 -41 35 -92 75 -115 91 -23 15 -67 51 -97 80 -30 29 -73 65 -95 79 -22 14
-69 53 -104 87 -35 33 -68 61 -73 61 -5 0 -30 20 -56 44 l-48 45 -51 -57z"/>
<path d="M4143 2703 c-51 -50 -93 -106 -93 -122 0 -5 28 -33 61 -62 34 -30 71
-63 83 -74 11 -11 55 -49 96 -84 41 -35 77 -67 78 -72 2 -5 25 -24 50 -41 26
-18 67 -53 92 -80 43 -45 51 -49 127 -63 131 -25 273 -99 356 -187 87 -91 106
-124 113 -206 l7 -73 69 -67 c38 -37 85 -75 103 -85 19 -9 45 -31 57 -47 27
-37 104 -88 145 -96 43 -8 98 20 156 80 26 27 47 53 47 59 0 24 -186 191 -368
330 -20 16 -66 55 -102 89 -35 33 -80 68 -100 78 -19 10 -57 42 -85 70 -27 28
-66 60 -86 70 -19 10 -53 38 -74 61 -21 23 -61 58 -89 77 -28 18 -64 49 -79
68 -16 19 -50 48 -75 65 -26 18 -68 52 -93 76 -26 25 -69 61 -97 81 -28 21
-96 74 -151 120 l-100 82 -48 -47z"/>
<path d="M3874 2436 c-19 -14 -19 -15 2 -38 12 -13 29 -39 38 -59 9 -19 29
-50 44 -68 l27 -33 82 13 83 13 -34 36 c-18 19 -43 50 -55 67 -45 66 -142 102
-187 69z"/>
<path d="M3515 2374 c-32 -13 -77 -38 -99 -56 -21 -17 -67 -46 -100 -63 -151
-79 -223 -123 -268 -165 -44 -42 -49 -50 -58 -115 -19 -120 12 -210 96 -284
46 -41 47 -41 126 -41 89 0 144 19 213 75 22 17 63 44 90 60 28 16 75 50 105
76 30 25 69 54 86 62 17 9 39 27 48 42 9 14 35 37 57 52 36 24 40 30 36 57
-17 110 -97 255 -165 301 -46 31 -88 31 -167 -1z"/>
<path d="M4175 2115 c-5 -2 -27 -6 -49 -10 -41 -7 -79 -40 -123 -110 -31 -47
-110 -126 -178 -178 -27 -21 -85 -72 -128 -113 -67 -65 -79 -82 -88 -124 -14
-64 2 -150 37 -198 49 -68 168 -129 228 -117 49 11 160 90 202 145 21 27 41
50 45 50 8 0 186 170 303 291 46 47 48 52 44 94 -6 52 -63 176 -102 222 -26
31 -38 35 -143 47 -21 3 -42 3 -48 1z"/>
<path d="M4633 1938 c2 -13 9 -35 15 -50 6 -14 10 -56 9 -93 -2 -76 15 -56
-217 -252 -69 -58 -145 -128 -169 -156 -42 -50 -43 -52 -37 -105 8 -65 25 -90
88 -125 92 -52 164 -32 236 65 45 60 78 97 107 118 11 8 33 35 50 59 16 24 53
64 82 89 29 25 53 49 53 53 0 3 16 33 35 65 52 86 47 140 -22 230 -23 31 -188
124 -219 124 -10 0 -13 -8 -11 -22z"/>
<path d="M4965 1454 c-80 -54 -91 -82 -59 -150 26 -54 61 -67 171 -62 74 3 98
8 120 24 53 40 43 64 -63 149 -45 37 -107 76 -116 74 -1 -1 -25 -16 -53 -35z"/>
</g>
</svg>
